<svg id="Layer_1" data-name="Layer 1" xmlns="http://www.w3.org/2000/svg" viewBox="0 0 170 65"><defs><style>.cls-1{font-size:50.26px;font-family:Roboto-Regular, Roboto;}.cls-1,.cls-2{fill:#fff;}</style></defs><title>basic logo</title><text class="cls-1" transform="translate(63.61 57.19) scale(1.06 1)">dios</text><path class="cls-2" d="M34.06,4.5C17.49,4.5,4,17.32,4,33.07S17.49,61.63,34.06,61.63,64.13,48.8,64.13,33.07,50.62,4.5,34.06,4.5Zm0,51.41C20.79,55.91,10,45.66,10,33.07S20.79,10.2,34.06,10.2s24,10.25,24,22.86S47.32,55.91,34.06,55.91Zm9-22.85a8.78,8.78,0,0,1-9,8.56,8.79,8.79,0,0,1-9-8.56,8.81,8.81,0,0,1,9-8.58A8.79,8.79,0,0,1,43.08,33.07Z"/></svg>